<svg data-name="Layer 1" width="128" height="128" viewBox="141.781 85.486 128 128" xmlns="http://www.w3.org/2000/svg">
    <ellipse cx="195.896" cy="197.185" rx="10.903" ry="4.089" fill="#2f2e41"/>
    <ellipse cx="222.063" cy="196.64" rx="10.903" ry="4.089" fill="#2f2e41"/>
    <ellipse cx="469.744" cy="542.424" rx="21.534" ry="6.76"
             transform="matrix(-0.499434, -0.866352, 0.866352, -0.499434, 6.425563, 838.211907)"
             fill="#2f2e41"/>
    <circle cx="420.936" cy="555.946" r="43.067"
            transform="matrix(0.160182, -0.987087, 0.987087, 0.160182, -411.575832, 466.119763)"
            fill="#2f2e41"/>
    <rect x="184.993" y="173.471" width="13.084" height="23.442" fill="#2f2e41"/>
    <rect x="211.16" y="173.471" width="13.084" height="23.442" fill="#2f2e41"/>
    <circle cx="205.709" cy="128.768" r="14.719" fill="#fff"/>
    <circle cx="205.709" cy="128.768" r="4.906" fill="#3f3d56"/>
    <ellipse cx="372.428" cy="535.963" rx="6.76" ry="21.534"
             transform="matrix(-0.903528, -0.428529, 0.428529, -0.903528, 272.107589, 805.242028)"
             fill="#2f2e41"/>
    <path d="M 183.464 155.208 C 183.464 159.424 194.317 167.747 206.36 167.747 C 218.404 167.747 229.695 155.88 229.695 151.665 C 229.695 147.45 218.404 152.483 206.36 152.483 C 194.317 152.483 183.464 150.993 183.464 155.208 Z"
          fill="#fff"/>
</svg>
