<svg width="48" height="48" viewBox="0 0 48 48" fill="none" xmlns="http://www.w3.org/2000/svg">
<g clip-path="url(#clip0_638_950)">
<path d="M13.0178 13.7141C12.3096 14.4223 12.4735 15.7343 13.3838 16.6446C14.1482 17.409 15.1942 17.6432 15.9298 17.2806L20.4717 26.2393L12.04 24.2322C11.988 23.683 11.7195 23.1015 11.2461 22.6281C10.3358 21.7178 9.02382 21.5539 8.31564 22.2621C7.60746 22.9703 7.7713 24.2823 8.68159 25.1926C9.59187 26.1029 10.9039 26.2668 11.6121 25.5586C11.6496 25.521 11.6822 25.4795 11.7148 25.4386L16.7994 32.8473L10.7385 33.1222C10.6388 32.6494 10.3858 32.1684 9.98321 31.7658C9.07292 30.8555 7.76089 30.6916 7.05272 31.3998C6.34455 32.108 6.50838 33.42 7.41867 34.3303C8.32896 35.2406 9.641 35.4044 10.3492 34.6963C10.5409 34.5046 10.6676 34.2683 10.734 34.0081L18.4691 38.257L37.5294 19.1968L33.9651 11.9504C34.1846 11.8786 34.3832 11.7612 34.5493 11.5951C35.2574 10.8869 35.0936 9.5749 34.1833 8.66461C33.273 7.75432 31.961 7.59047 31.2528 8.29865C30.5446 9.00682 30.7085 10.3188 31.6188 11.2291C31.9578 11.5682 32.3518 11.8034 32.7504 11.9289L32.387 16.8593L25.2386 12.4357C25.7319 11.6993 25.524 10.5484 24.6997 9.72401C23.7894 8.81373 22.4773 8.64991 21.7691 9.35808C21.061 10.0663 21.2248 11.3783 22.1351 12.2886C22.6376 12.7911 23.2621 13.0636 23.8404 13.09L25.7553 20.8242L16.6634 16.4384C16.905 15.7201 16.6492 14.7812 15.9483 14.0803C15.038 13.17 13.726 13.0059 13.0178 13.7141ZM18.1178 37.7894L20.8903 40.8206L39.9818 21.729L37.2106 18.9578L18.1178 37.7894ZM20.561 40.45L23.3626 43.293L42.4542 24.2014L39.6212 21.4282L20.561 40.45Z" fill="#FCCE00"/>
<path d="M12.9796 13.7336C12.2714 14.4418 12.4358 15.7537 13.3461 16.664C14.1105 17.4284 15.1556 17.6614 15.8911 17.2988L20.4337 26.2582L12.0011 24.2515C11.9491 23.7023 11.682 23.1203 11.2086 22.6469C10.9827 22.421 10.7314 22.2421 10.4711 22.1103C9.88 22.9747 9.54736 24.2615 9.46241 25.7845C10.2282 26.1413 11.0599 26.0926 11.5739 25.5786C11.6116 25.5409 11.6401 25.4948 11.6754 25.4566L16.7607 32.865L10.699 33.1414C10.6348 32.8374 10.5006 32.5317 10.3106 32.2441C10.494 32.8847 10.6886 33.5244 10.9296 34.1562L12.5219 35.0297C15.2267 33.835 19.3008 34.9597 21.6259 34.7651C24.2534 34.545 26.9808 33.2163 29.054 31.2854C31.127 29.3543 32.9599 25.4221 33.5455 22.8455C34.1296 20.2752 32.2886 15.3895 34.3444 12.8186L34.3289 12.7859C33.801 12.541 33.2544 12.3184 32.7007 12.1112L32.3484 16.8775L25.2007 12.4546C25.5456 11.9396 25.5402 11.2224 25.2284 10.5554C23.7276 10.5022 22.3896 10.6451 21.3581 11.0002C21.4649 11.4569 21.708 11.9188 22.0966 12.3074C22.5991 12.8099 23.2238 13.081 23.8021 13.1074L25.7174 20.8431L16.625 16.4562C16.8666 15.738 16.6108 14.8009 15.9099 14.1C14.9996 13.1897 13.6878 13.0252 12.9797 13.7333L12.9796 13.7336Z" fill="#FEE140"/>
</g>
<defs>
<clipPath id="clip0_638_950">
<rect width="38" height="29" fill="white" transform="translate(0 26.8701) rotate(-45)"/>
</clipPath>
</defs>
</svg>
